# xmcd
#
# Track frame offsets: 
#        150
#        8870
#        29057
#        42645
#        67750
#        78415
#        90487
#        115160
#        125587
#        137585
#        166137
#        183222
#        199285
#        215827
#        233892
#        244367
#        267477
#        289420
#
# Disc length: 4274 seconds
#
# Revision: 0
# Processed by: cddbd v1.5.1PL2 Copyright (c) Steve Scherf et al.
# Submitted via: ExactAudioCopy v0.95a5
#
DISCID=0e10b012
DTITLE=Various Artist - Mojo Blues
DYEAR=1900
DGENRE=Blues
TTITLE0=John Lee Hooker/ Hobo Blues
TTITLE1=Pinetop Perkins/ Got My Mojo Working
TTITLE2=Muddy Waters/ Hoochie Coochie Man
TTITLE3=Howln'Wolf/ I Didn't Mean To Hurt Your Feelings
TTITLE4=Big Joe Williams/ Baby Please Don't Go
TTITLE5=Leadbelly/ Goodnight Irene
TTITLE6=Roy Brown/ Boogie Woogie Blues
TTITLE7=Memphis Slim/ Gotta Find My Baby
TTITLE8=Ray Charles/ C.C. Rider
TTITLE9=Percy Mayfield/ Evryday I Have The Blues
TTITLE10=Bo Diddley/ Say Boss Man
TTITLE11=Skeleton Kew/ Song For Frank
TTITLE12=Mike Bloomfield/ Cherry Red
TTITLE13=Little Walter and Otis Rush/ Maybe The Last Time
TTITLE14=Jimmy Reed/ Ain't ThatLovin'You Baby
TTITLE15=Mississppi John Hurt/ The Angels Laid Him Away
TTITLE16=Greg Smith/ Blues In My Blood
TTITLE17=Sonny Terry and Brownie Mcghee/ Blues For The Gamblers
EXTD=
EXTT0=
EXTT1=
EXTT2=
EXTT3=
EXTT4=
EXTT5=
EXTT6=
EXTT7=
EXTT8=
EXTT9=
EXTT10=
EXTT11=
EXTT12=
EXTT13=
EXTT14=
EXTT15=
EXTT16=
EXTT17=
PLAYORDER=
